<svg width="143" height="36" viewBox="0 0 143 36" fill="none" xmlns="http://www.w3.org/2000/svg">
<path fill-rule="evenodd" clip-rule="evenodd" d="M18 36C27.9412 36 36 27.9411 36 18C36 8.05888 27.9412 0 18 0C8.05887 0 0 8.05888 0 18C0 27.9411 8.05887 36 18 36ZM20.7783 13.9073C22.3126 12.3729 22.3126 9.88521 20.7783 8.3508C19.2439 6.81641 16.7562 6.81641 15.2218 8.3508C13.6874 9.88521 13.6874 12.3729 15.2218 13.9073L18 16.6855L20.7783 13.9073ZM22.0927 20.7783C23.6271 22.3127 26.1148 22.3127 27.6493 20.7783C29.1836 19.2439 29.1836 16.7562 27.6493 15.2218C26.1148 13.6874 23.6271 13.6874 22.0927 15.2218L19.3145 18.0001L22.0927 20.7783ZM20.7783 27.6493C22.3126 26.1148 22.3126 23.6271 20.7783 22.0927L18 19.3145L15.2218 22.0927C13.6874 23.6271 13.6874 26.1148 15.2218 27.6493C16.7562 29.1837 19.2439 29.1837 20.7783 27.6493ZM8.35077 20.7783C6.81642 19.2439 6.81642 16.7562 8.35077 15.2218C9.88521 13.6874 12.3729 13.6874 13.9073 15.2218L16.6855 18.0001L13.9073 20.7783C12.3729 22.3127 9.88521 22.3127 8.35077 20.7783Z" fill="#0D903A"/>
<path d="M64.14 10.96V25H60.72V16.58L57.58 25H54.82L51.66 16.56V25H48.24V10.96H52.28L56.22 20.68L60.12 10.96H64.14ZM77.9994 13.84L70.9994 30.3H67.3194L69.8794 24.62L65.3394 13.84H69.1594L71.7394 20.82L74.2994 13.84H77.9994ZM90.1144 25.14C88.7944 25.14 87.581 24.8333 86.4744 24.22C85.381 23.6067 84.5077 22.7533 83.8544 21.66C83.2144 20.5533 82.8944 19.3133 82.8944 17.94C82.8944 16.5667 83.2144 15.3333 83.8544 14.24C84.5077 13.1467 85.381 12.2933 86.4744 11.68C87.581 11.0667 88.7944 10.76 90.1144 10.76C91.4344 10.76 92.641 11.0667 93.7344 11.68C94.841 12.2933 95.7077 13.1467 96.3344 14.24C96.9744 15.3333 97.2944 16.5667 97.2944 17.94C97.2944 19.3133 96.9744 20.5533 96.3344 21.66C95.6944 22.7533 94.8277 23.6067 93.7344 24.22C92.641 24.8333 91.4344 25.14 90.1144 25.14ZM90.1144 22.02C91.2344 22.02 92.1277 21.6467 92.7944 20.9C93.4744 20.1533 93.8144 19.1667 93.8144 17.94C93.8144 16.7 93.4744 15.7133 92.7944 14.98C92.1277 14.2333 91.2344 13.86 90.1144 13.86C88.981 13.86 88.0744 14.2267 87.3944 14.96C86.7277 15.6933 86.3944 16.6867 86.3944 17.94C86.3944 19.18 86.7277 20.1733 87.3944 20.92C88.0744 21.6533 88.981 22.02 90.1144 22.02ZM104.797 16.68H102.957V25H99.537V16.68H98.297V13.84H99.537V13.52C99.537 12.1467 99.9304 11.1067 100.717 10.4C101.504 9.68 102.657 9.32 104.177 9.32C104.43 9.32 104.617 9.32667 104.737 9.34V12.24C104.084 12.2 103.624 12.2933 103.357 12.52C103.09 12.7467 102.957 13.1533 102.957 13.74V13.84H104.797V16.68ZM112.004 16.68H110.164V25H106.744V16.68H105.504V13.84H106.744V13.52C106.744 12.1467 107.137 11.1067 107.924 10.4C108.711 9.68 109.864 9.32 111.384 9.32C111.637 9.32 111.824 9.32667 111.944 9.34V12.24C111.291 12.2 110.831 12.2933 110.564 12.52C110.297 12.7467 110.164 13.1533 110.164 13.74V13.84H112.004V16.68ZM115.331 12.68C114.731 12.68 114.238 12.5067 113.851 12.16C113.478 11.8 113.291 11.36 113.291 10.84C113.291 10.3067 113.478 9.86667 113.851 9.52C114.238 9.16 114.731 8.98 115.331 8.98C115.918 8.98 116.398 9.16 116.771 9.52C117.158 9.86667 117.351 10.3067 117.351 10.84C117.351 11.36 117.158 11.8 116.771 12.16C116.398 12.5067 115.918 12.68 115.331 12.68ZM117.031 13.84V25H113.611V13.84H117.031ZM118.83 19.42C118.83 18.26 119.063 17.2467 119.53 16.38C120.01 15.5133 120.67 14.8467 121.51 14.38C122.363 13.9133 123.336 13.68 124.43 13.68C125.83 13.68 126.996 14.0467 127.93 14.78C128.876 15.5133 129.496 16.5467 129.79 17.88H126.15C125.843 17.0267 125.25 16.6 124.37 16.6C123.743 16.6 123.243 16.8467 122.87 17.34C122.496 17.82 122.31 18.5133 122.31 19.42C122.31 20.3267 122.496 21.0267 122.87 21.52C123.243 22 123.743 22.24 124.37 22.24C125.25 22.24 125.843 21.8133 126.15 20.96H129.79C129.496 22.2667 128.876 23.2933 127.93 24.04C126.983 24.7867 125.816 25.16 124.43 25.16C123.336 25.16 122.363 24.9267 121.51 24.46C120.67 23.9933 120.01 23.3267 119.53 22.46C119.063 21.5933 118.83 20.58 118.83 19.42ZM142.139 19.24C142.139 19.56 142.119 19.8933 142.079 20.24H134.339C134.392 20.9333 134.612 21.4667 134.999 21.84C135.399 22.2 135.886 22.38 136.459 22.38C137.312 22.38 137.906 22.02 138.239 21.3H141.879C141.692 22.0333 141.352 22.6933 140.859 23.28C140.379 23.8667 139.772 24.3267 139.039 24.66C138.306 24.9933 137.486 25.16 136.579 25.16C135.486 25.16 134.512 24.9267 133.659 24.46C132.806 23.9933 132.139 23.3267 131.659 22.46C131.179 21.5933 130.939 20.58 130.939 19.42C130.939 18.26 131.172 17.2467 131.639 16.38C132.119 15.5133 132.786 14.8467 133.639 14.38C134.492 13.9133 135.472 13.68 136.579 13.68C137.659 13.68 138.619 13.9067 139.459 14.36C140.299 14.8133 140.952 15.46 141.419 16.3C141.899 17.14 142.139 18.12 142.139 19.24ZM138.639 18.34C138.639 17.7533 138.439 17.2867 138.039 16.94C137.639 16.5933 137.139 16.42 136.539 16.42C135.966 16.42 135.479 16.5867 135.079 16.92C134.692 17.2533 134.452 17.7267 134.359 18.34H138.639Z" fill="#000929"/>
</svg>
